<?xml version="1.0" encoding="UTF-8" standalone="no"?>
<!-- Created with Inkscape (http://www.inkscape.org/) -->

<svg
   xmlns:dc="http://purl.org/dc/elements/1.1/"
   xmlns:cc="http://creativecommons.org/ns#"
   xmlns:rdf="http://www.w3.org/1999/02/22-rdf-syntax-ns#"
   xmlns:svg="http://www.w3.org/2000/svg"
   xmlns="http://www.w3.org/2000/svg"
   xmlns:sodipodi="http://sodipodi.sourceforge.net/DTD/sodipodi-0.dtd"
   xmlns:inkscape="http://www.inkscape.org/namespaces/inkscape"
   width="210mm"
   height="297mm"
   viewBox="0 0 210 297"
   version="1.1"
   id="svg8"
   inkscape:version="0.92.3 (2405546, 2018-03-11)"
   sodipodi:docname="logo.svg">
  <defs
     id="defs2">
    <inkscape:perspective
       sodipodi:type="inkscape:persp3d"
       inkscape:vp_x="0 : 148.5 : 1"
       inkscape:vp_y="0 : 1000 : 0"
       inkscape:vp_z="183.54167 : 143.20833 : 1"
       inkscape:persp3d-origin="105 : 99 : 1"
       id="perspective86" />
  </defs>
  <sodipodi:namedview
     id="base"
     pagecolor="#ffffff"
     bordercolor="#666666"
     borderopacity="1.0"
     inkscape:pageopacity="0.0"
     inkscape:pageshadow="2"
     inkscape:zoom="0.35"
     inkscape:cx="400"
     inkscape:cy="560"
     inkscape:document-units="mm"
     inkscape:current-layer="layer1"
     showgrid="false"
     inkscape:window-width="1920"
     inkscape:window-height="1001"
     inkscape:window-x="-9"
     inkscape:window-y="-9"
     inkscape:window-maximized="1" />
  <metadata
     id="metadata5">
    <rdf:RDF>
      <cc:Work
         rdf:about="">
        <dc:format>image/svg+xml</dc:format>
        <dc:type
           rdf:resource="http://purl.org/dc/dcmitype/StillImage" />
        <dc:title></dc:title>
      </cc:Work>
    </rdf:RDF>
  </metadata>
  <g
     inkscape:label="Capa 1"
     inkscape:groupmode="layer"
     id="layer1">
    <g
       sodipodi:type="inkscape:box3d"
       id="g88"
       style="fill:#008080"
       inkscape:perspectiveID="#perspective86"
       inkscape:corner0="3.2090195 : 0.21490299 : 0 : 1"
       inkscape:corner7="0.2513301 : -0.086859317 : 2.3223557 : 1">
      <path
         sodipodi:type="inkscape:box3dside"
         id="path90"
         style="fill:#353564;fill-rule:evenodd;stroke:none;stroke-linejoin:round"
         inkscape:box3dsidetype="6"
         d="m 24.946428,109.20273 v 71.6942 l 56.391581,-9.63779 v -46.20195 z"
         points="24.946428,180.89693 81.338009,171.25914 81.338009,125.05719 24.946428,109.20273 " />
      <path
         sodipodi:type="inkscape:box3dside"
         id="path98"
         style="fill:#afafde;fill-rule:evenodd;stroke:none;stroke-linejoin:round"
         inkscape:box3dsidetype="13"
         d="M 24.946428,180.89693 83.910714,257.4715 148.65578,190.09528 81.338009,171.25914 Z"
         points="83.910714,257.4715 148.65578,190.09528 81.338009,171.25914 24.946428,180.89693 " />
      <path
         sodipodi:type="inkscape:box3dside"
         id="path100"
         style="fill:#e9e9ff;fill-rule:evenodd;stroke:none;stroke-linejoin:round"
         inkscape:box3dsidetype="11"
         d="m 81.338009,125.05719 67.317771,-19.40198 v 84.44007 L 81.338009,171.25914 Z"
         points="148.65578,105.65521 148.65578,190.09528 81.338009,171.25914 81.338009,125.05719 " />
      <path
         sodipodi:type="inkscape:box3dside"
         id="path92"
         style="fill:#4d4d9f;fill-rule:evenodd;stroke:none;stroke-linejoin:round"
         inkscape:box3dsidetype="5"
         d="M 24.946428,109.20273 83.910714,16.318268 148.65578,105.65521 81.338009,125.05719 Z"
         points="83.910714,16.318268 148.65578,105.65521 81.338009,125.05719 24.946428,109.20273 " />
      <path
         sodipodi:type="inkscape:box3dside"
         id="path96"
         style="fill:#d7d7ff;fill-rule:evenodd;stroke:none;stroke-linejoin:round"
         inkscape:box3dsidetype="14"
         d="M 83.910714,16.318268 V 257.4715 l 64.745066,-67.37622 v -84.44007 z"
         points="83.910714,257.4715 148.65578,190.09528 148.65578,105.65521 83.910714,16.318268 " />
      <path
         sodipodi:type="inkscape:box3dside"
         id="path94"
         style="fill:#8686bf;fill-rule:evenodd;stroke:none;stroke-linejoin:round"
         inkscape:box3dsidetype="3"
         d="M 24.946428,109.20273 83.910714,16.318268 V 257.4715 L 24.946428,180.89693 Z"
         points="83.910714,16.318268 83.910714,257.4715 24.946428,180.89693 24.946428,109.20273 " />
    </g>
    <path
       style="fill:#aa0000;stroke-width:0.26458332"
       id="path132"
       d="m 42.644726,114.68588 c -0.04252,2.68302 -0.02577,5.36651 -0.01463,8.0497 0.01217,1.86523 0.01154,3.73047 0.0108,5.59571 0.0011,1.67467 0.0036,3.34934 0.0049,5.02402 0.0011,1.52532 0.0011,3.05064 0.0013,4.57597 5.1e-5,1.51021 1.9e-5,3.02042 6e-6,4.53063 -1.6e-5,1.51159 -1.9e-5,3.02317 -2.1e-5,4.53476 0,1.51191 0,3.02382 0,4.53574 0,1.51191 0,3.02382 0,4.53573 0,1.5119 0,3.02381 0,4.53571 0,0.50397 0,1.00794 0,1.51191 0,0 -6.675041,3.4011 -6.675041,3.4011 v 0 c 0,-0.50398 0,-1.00793 0,-1.51191 0,-1.5119 0,-3.02381 0,-4.53571 0,-1.51191 0,-3.02382 0,-4.53573 0,-1.51191 0,-3.02382 -3e-6,-4.53573 0,-1.51158 -5e-6,-3.02317 -1.8e-5,-4.53475 -1.3e-5,-1.51021 -4.5e-5,-3.02042 5e-6,-4.53063 9e-5,-1.52576 2.09e-4,-3.05152 0.0013,-4.57727 0.0013,-1.67633 0.0039,-3.35267 0.0049,-5.029 -7.94e-4,-1.86891 -0.0013,-3.73781 0.01079,-5.6067 0.01109,-2.67824 0.02808,-5.35676 -0.01463,-8.03481 0,0 6.670405,-3.39874 6.670405,-3.39874 z"
       inkscape:connector-curvature="0" />
    <path
       style="fill:#aa0000;stroke-width:0.26458332"
       id="path134"
       d="m 44.43618,120.49021 c 1.035328,2.23429 2.026296,4.48725 3.08224,6.71167 0.621318,1.33636 1.527651,2.28869 2.696781,3.14208 1.152332,0.76571 2.344841,1.43069 3.615653,1.98229 0.552707,0.2112 1.131692,0.42796 1.687608,0.0978 0.151477,-0.09 0.562816,-0.41985 0.40763,-0.33644 -6.035876,3.24415 -7.361859,5.17266 -5.532011,2.73998 1.126908,-1.61217 1.687264,-3.51828 2.487747,-5.29893 0.818245,-1.76275 1.40624,-3.61492 2.10429,-5.42447 0.682612,-1.48761 1.307216,-2.98633 1.872842,-4.52128 0.558157,-1.16308 0.740172,-2.44175 1.122029,-3.66195 1.257277,-3.18285 6.329585,-7.18601 8.808395,-4.11761 0.701643,1.26029 0.73801,2.72802 0.797007,4.13465 0.03929,1.5295 0.02429,3.05975 0.01818,4.58956 -0.0066,1.51562 -0.0089,3.03126 -0.01027,4.54689 -0.0011,1.51186 -0.0011,3.02372 -0.0011,4.53558 3.9e-5,1.51185 7.9e-5,3.02369 1.03e-4,4.53554 1.8e-5,1.5119 1.8e-5,3.0238 1.8e-5,4.5357 0.0019,1.73707 -0.0081,3.47411 -0.0095,5.21117 0.0011,1.77143 0.0053,3.54285 0.0075,5.31428 0.0016,1.53434 0.0019,3.06867 0.0021,4.60301 6.6e-5,1.00594 4.5e-5,2.01188 3.4e-5,3.01781 0,0 -6.675149,3.40116 -6.675149,3.40116 v 0 c -1.3e-5,-1.00595 -3.2e-5,-2.0119 3.4e-5,-3.01785 1.54e-4,-1.53503 2.65e-4,-3.07007 0.0021,-4.60511 0.0021,-1.77397 0.0063,-3.54793 0.0075,-5.3219 -0.0013,-1.73383 -0.01148,-3.46764 -0.0095,-5.20147 -3e-6,-1.51189 -3e-6,-3.02379 -1.9e-5,-4.53569 -1.8e-5,-1.51185 -5.5e-5,-3.02369 -1.06e-4,-4.53553 -2.9e-5,-1.51206 -1.42e-4,-3.02411 7.94e-4,-4.53617 0.0011,-1.51644 0.003,-3.03288 0.0096,-4.5493 0.0065,-1.52057 0.02127,-3.04137 -0.0052,-4.56181 -0.03862,-1.23085 -0.01656,-2.54609 -0.568814,-3.67506 -0.183441,-0.17971 -0.232757,-0.31688 -0.52065,-0.27622 -0.120869,0.0171 -0.444714,0.19811 -0.340767,0.13411 11.870899,-7.30918 6.579086,-4.85966 5.277601,-2.82372 -0.406373,1.23486 -0.596067,2.51547 -1.105723,3.71768 -0.670285,1.48931 -1.086363,3.09684 -1.894477,4.53396 -0.781362,1.78187 -1.254636,3.68625 -2.093037,5.44765 -0.819169,1.79943 -1.413044,3.70224 -2.420236,5.40196 -1.887551,3.1997 -6.097813,6.14408 -9.671055,4.64679 -1.295355,-0.60507 -2.529777,-1.29703 -3.702826,-2.11712 -1.250383,-0.94011 -2.200296,-2.03991 -2.865561,-3.47343 -1.025944,-2.23106 -1.979229,-4.49271 -3.08772,-6.68575 0,0 6.506104,-3.70447 6.506104,-3.70447 z"
       inkscape:connector-curvature="0" />
    <path
       style="fill:#aa0000;stroke-width:0.26458332"
       id="path136"
       d="m 107.65301,110.24244 c -0.0432,2.87633 -0.0213,5.7531 -0.0175,8.62962 0.004,2.36074 0.0149,4.72146 0.004,7.08219 0.002,2.38633 5.3e-4,4.77266 0.004,7.15899 0.005,1.84374 0.0104,3.68748 0.0132,5.53122 0.002,1.52876 0.002,3.05753 0.002,4.58629 3e-5,1.50779 -3e-5,3.01557 -7e-5,4.52336 -3e-5,1.51138 -3e-5,3.02276 -3e-5,4.53414 -10e-6,1.51194 -10e-6,3.02387 -10e-6,4.53581 0,1.51191 0,3.02383 0,4.53574 0,1.51191 0,3.02381 0,4.53572 0,1.5119 0,3.02381 0,4.53571 -0.12304,0.0921 0.0367,2.30386 0.0208,2.31142 -6.90472,3.30073 -7.55546,5.12232 -6.40846,2.44512 0.27996,-1.65609 0.95204,-3.19865 1.41811,-4.8036 0.47251,-1.78619 1.24801,-3.46035 1.92099,-5.17344 0.6556,-1.31845 1.13542,-2.70434 1.66096,-4.07618 0.6,-1.61411 1.48425,-3.09631 2.37004,-4.56509 1.06526,-1.76098 1.93983,-3.62672 3.07891,-5.34169 0.79057,-1.32015 1.86357,-2.4323 2.76727,-3.66706 0.67181,-0.91077 1.44356,-1.75298 2.2025,-2.59544 0.87338,-0.87615 1.56849,-1.82477 2.11244,-2.93016 0.53251,-0.99606 1.09523,-1.97886 1.68067,-2.94551 0.62615,-1.05542 0.71118,-2.29538 1.03515,-3.45573 0.30367,-1.16692 0.83127,-2.24142 1.10355,-3.41816 0.12144,-0.87275 0.23189,-1.73741 0.4349,-2.59593 0,0 6.76753,-3.24091 6.76753,-3.24091 v 0 c -0.2267,0.84995 -0.41844,1.67997 -0.45164,2.56503 -0.21365,1.22123 -0.67458,2.31568 -1.07459,3.47201 -0.35868,1.20415 -0.48036,2.45148 -0.95422,3.61981 -0.54677,0.98932 -1.16058,1.9322 -1.69426,2.92412 -0.31818,0.54749 -0.48844,1.14876 -0.83579,1.67924 -0.47059,0.71871 -0.26899,0.28832 -0.81874,0.92248 -0.13907,0.16042 -0.25223,0.34157 -0.37834,0.51235 -0.79554,0.7985 -1.43718,1.70508 -2.25946,2.47002 -0.77406,1.34703 -2.0168,2.3451 -2.78893,3.7034 -1.20798,1.66024 -2.06427,3.51374 -3.09082,5.28735 -0.84463,1.45394 -1.78514,2.85883 -2.41444,4.42758 -0.46415,1.39882 -0.97852,2.79318 -1.6731,4.09937 -0.63176,1.71032 -1.45265,3.34309 -1.94388,5.10603 -0.42426,1.61731 -1.17177,3.13551 -1.39451,4.79788 -0.55541,3.19166 0.0358,0.80696 -7.0886,4.19947 -0.0729,0.0347 0.0116,-0.16122 0.0136,-0.24198 0.005,-0.19288 0.006,-0.38585 0.007,-0.57879 0.003,-0.50386 -0.003,-1.00805 0,-1.5119 0,-1.51191 0,-3.02381 0,-4.53572 0,-1.5119 0,-3.02381 0,-4.53571 0,-1.51192 0,-3.02383 0,-4.53575 0,-1.51193 0,-3.02387 0,-4.53581 -10e-6,-1.51136 -10e-6,-3.02273 -4e-5,-4.5341 -4e-5,-1.50776 -1e-4,-3.01553 -7e-5,-4.52329 1.1e-4,-1.52951 2.1e-4,-3.05903 0.002,-4.58855 0.003,-1.84824 0.008,-3.69646 0.0132,-5.5447 0.004,-2.38774 0.003,-4.77548 0.004,-7.16323 -0.011,-2.36207 8e-5,-4.72415 0.004,-7.08623 0.004,-2.87056 0.0258,-5.74139 -0.0175,-8.61176 0,0 6.66317,-3.39505 6.66317,-3.39505 z"
       inkscape:connector-curvature="0" />
  </g>
</svg>
